<!DOCTYPE svg PUBLIC "-//W3C//DTD SVG 1.1//EN" "http://www.w3.org/Graphics/SVG/1.1/DTD/svg11.dtd">
<!-- Uploaded to: SVG Repo, www.svgrepo.com, Transformed by: SVG Repo Mixer Tools -->
<svg width="64px" height="64px" viewBox="0 0 100 100" xmlns="http://www.w3.org/2000/svg" version="1.1" fill="#000000">
<g id="SVGRepo_bgCarrier" stroke-width="0"/>
<g id="SVGRepo_tracerCarrier" stroke-linecap="round" stroke-linejoin="round"/>
<g id="SVGRepo_iconCarrier"> <path style="fill:#ffffff;stroke:none;" d="m 65,3 0,19 19,0 z"/> <path style="fill:#ffffff;stroke:#000000;stroke-width:2;" d="m 65,3 0,19 19,0 0,74 -72,0 0,-93 53,0 19,19"/> <g transform="scale(0.4), translate(26,30)"> <path style="fill:none;stroke:#000000;stroke-width:6;" d="m 96,62 64,0 m -64,16 64,0 m -64,16 64,0 m -64,16 64,0 m -64,16 64,0"/> <path style="fill:#263238;stroke:none;" d="m 52,96 a 18,18 1 1 1 0.1,0 z m 35.9,36 -72,0 0,-9 a 12,12 0 0 1 8,-10 a 90,90 0 0 1 56,0 a 12,12 0 0 1 8,10 z"/> </g> </g>
</svg>